<?xml version="1.0" encoding="UTF-8"?><svg id="a" xmlns="http://www.w3.org/2000/svg" width="120" height="90" viewBox="0 0 120 90"><defs><style>.b{fill:none;stroke:#f85f51;stroke-linecap:round;stroke-miterlimit:10;stroke-width:2.72px;}</style></defs><path class="b" d="M54.7,43.07l5.87,5.83c.16,.16,.41,.14,.55-.04l8.49-11.1"/><g><path class="b" d="M70.49,66.63v-.51c0-9.09,10.06-14.64,9.63-25.31-.3-9.16-7.66-16.76-16.82-17.33-.38-.02-.77-.04-1.15-.04s-.76,.01-1.15,.04c-9.15,.57-16.51,8.16-16.82,17.33-.43,10.67,9.63,16.22,9.63,25.31v4.09c0,4.58,3.71,8.29,8.29,8.29h.07c4.57,0,8.28-3.7,8.29-8.26v-3.6Z"/><line class="b" x1="62.16" y1="15.42" x2="62.16" y2="7"/><line class="b" x1="47.25" y1="20.02" x2="42.51" y2="13.06"/><line class="b" x1="37.53" y1="32.22" x2="29.69" y2="29.14"/><line class="b" x1="36.37" y1="47.77" x2="28.16" y2="49.65"/><line class="b" x1="44.18" y1="61.27" x2="38.46" y2="67.45"/><line class="b" x1="77.06" y1="20.02" x2="81.8" y2="13.06"/><line class="b" x1="86.78" y1="32.22" x2="94.62" y2="29.14"/><line class="b" x1="87.94" y1="47.77" x2="96.15" y2="49.65"/><line class="b" x1="80.13" y1="61.27" x2="85.85" y2="67.45"/><line class="b" x1="70.49" y1="66.63" x2="53.82" y2="66.63"/></g></svg>