<svg xmlns="http://www.w3.org/2000/svg" xmlns:xlink="http://www.w3.org/1999/xlink" width="103.275" height="90" viewBox="0 0 103.275 90"><defs><clipPath id="a"><rect width="103.275" height="90" fill="#fff" stroke="#707070" stroke-width="1"/></clipPath></defs><g transform="translate(0 0)"><g transform="translate(0 0)" clip-path="url(#a)"><path d="M82.594,27.915a35.237,35.237,0,0,1,8,22.171C90.6,71.466,70.707,88.8,46.173,88.8S1.75,71.466,1.75,50.086,21.639,11.373,46.173,11.373a48.85,48.85,0,0,1,25.443,6.973" transform="translate(0.174 -0.475)" fill="#f85f51" stroke="#fff" stroke-linecap="round" stroke-miterlimit="10" stroke-width="3.5"/><path d="M69.768,38.449a22.451,22.451,0,0,1,3.665,12.234c0,13.806-12.843,25-28.684,25s-28.684-11.191-28.684-25,12.842-25,28.684-25a31.9,31.9,0,0,1,14.039,3.194" transform="translate(1.599 -1.074)" fill="#f85f51" stroke="#fff" stroke-linecap="round" stroke-miterlimit="10" stroke-width="3.5"/><path d="M56.139,49.684a9.981,9.981,0,0,1,.129,1.6c0,6.23-5.795,11.28-12.944,11.28s-12.945-5.05-12.945-11.28S36.175,40,43.324,40a14.836,14.836,0,0,1,1.835.113" transform="translate(3.024 -1.672)" fill="#f85f51" stroke="#fff" stroke-linecap="round" stroke-miterlimit="10" stroke-width="3.5"/><line y1="45.304" x2="51.987" transform="translate(46.348 4.306)" fill="none" stroke="#fff" stroke-linecap="round" stroke-miterlimit="10" stroke-width="3.5"/><path d="M71.308,21.784l-.442-7.629a.774.774,0,0,1,.272-.7L82.677,1.89a.571.571,0,0,1,.93.274L84.829,10" transform="translate(7.054 -0.073)" fill="#fff" stroke="#f85f51" stroke-linecap="round" stroke-miterlimit="10" stroke-width="3.5"/><path d="M71.267,22.144l8.755.385a1.05,1.05,0,0,0,.806-.237L94.1,12.236a.465.465,0,0,0-.314-.811l-8.993-1.065" transform="translate(7.095 -0.433)" fill="#fff" stroke="#f85f51" stroke-linecap="round" stroke-miterlimit="10" stroke-width="3.5"/></g></g></svg>