<svg xmlns="http://www.w3.org/2000/svg" width="118.131" height="90"><defs><clipPath id="a"><path fill="none" stroke="#f85f51" d="M0 0h118.131v90H0z"/></clipPath></defs><g clip-path="url(#a)" fill="none" stroke="#f85f51" stroke-linecap="round" stroke-miterlimit="10" stroke-width="3.5"><path d="M85.31 2.499a104.047 104.047 0 01-37.965 20.922v32.3A104.044 104.044 0 0185.31 76.646c1.429 1.211 3.329-.126 3.329-2.332V4.831c0-2.204-1.9-3.539-3.329-2.332zm3.342 49.111a14.488 14.488 0 00-.026-24.327M22.454 55.705c.806 10.987 4.238 20.669 7.974 29.257 1.346 3.094 4.5 3.951 6.693 1.819l1.979-1.917a4.362 4.362 0 00.766-4.7c-3.251-7.44-6.421-15.443-7.41-24.672"/><path d="M19.745 23.42h27.6v32.074h-27.6c-5.636 0-10.2-5.332-10.2-11.907v-8.26c-.004-6.577 4.564-11.907 10.2-11.907zm96.636 16.026h-9.744m2.183-24.212l-7.563 7.319m7.563 41.358l-7.563-7.318"/><path d="M10.461 49.465h-3.63c-2.806 0-5.081-2.655-5.081-5.929v-7.928c0-3.274 2.275-5.929 5.081-5.929h3.63"/></g></svg>