<svg xmlns="http://www.w3.org/2000/svg" width="120.981" height="90"><defs><clipPath id="a"><path fill="#f85f51" stroke="rgba(0,0,0,0)" d="M0 0h120.981v90H0z"/></clipPath></defs><g clip-path="url(#a)" fill="#f85f51" stroke="#fff" stroke-linecap="round" stroke-miterlimit="10" stroke-width="3.5"><path d="M60.558 56.14l-5.264 5.181a1.992 1.992 0 01-2.829-.031l-4.181-4.3a1.992 1.992 0 00-2.351-.373 23.929 23.929 0 01-4.2 1.7 2.009 2.009 0 00-1.441 1.915l-.054 6.01a2 2 0 01-2.018 1.993l-7.366-.066a2.006 2.006 0 01-1.982-2.03l.054-6.01a2.016 2.016 0 00-1.413-1.937 23.979 23.979 0 01-4.463-1.937 2 2 0 00-2.368.294l-4.314 4.153a1.992 1.992 0 01-2.828-.061l-5.1-5.349a2.019 2.019 0 01.062-2.841l4.316-4.156a2.018 2.018 0 00.394-2.36 24.324 24.324 0 01-1.651-4.246 2 2 0 00-1.877-1.467l-5.972-.12a2 2 0 01-1.96-2.05l.15-7.403a2.005 2.005 0 012.039-1.971l5.974.119a2 2 0 001.933-1.395 24.268 24.268 0 011.813-4.178 2.017 2.017 0 00-.3-2.373l-4.153-4.322a2.019 2.019 0 01.051-2.844l5.3-5.143a1.993 1.993 0 012.829.051l4.149 4.325a1.993 1.993 0 002.349.389 23.979 23.979 0 014.216-1.673 2.01 2.01 0 001.452-1.9l.1-6.006a2.005 2.005 0 012.029-1.976l7.365.119a2.006 2.006 0 011.967 2.044l-.1 6.009a2.011 2.011 0 001.391 1.943 23.934 23.934 0 014.162 1.807 1.992 1.992 0 002.359-.314l4.285-4.186a1.992 1.992 0 012.828.04l5.134 5.312a2.02 2.02 0 01-.04 2.845l-4.287 4.188a2.018 2.018 0 00-.379 2.363 24.229 24.229 0 011.68 4.233 2 2 0 001.891 1.453l5.976.075a2.005 2.005 0 011.975 2.036l-.088 7.405a2.006 2.006 0 01-2.026 1.986l-5.974-.075a2.01 2.01 0 00-1.933 1.418 24.3 24.3 0 01-1.771 4.17 2.028 2.028 0 00.314 2.379l4.177 4.291a2.019 2.019 0 01-.031 2.847z"/><path d="M45.768 46.482a15.954 15.954 0 00.481-22.469 15.745 15.745 0 00-22.347-.483 15.954 15.954 0 00-.48 22.469 15.744 15.744 0 0022.346.483zm72.474 24.188l-2.625 5.442a1.629 1.629 0 01-2.183.761l-4.392-2.142a1.627 1.627 0 00-1.909.365 19.678 19.678 0 01-2.765 2.475 1.648 1.648 0 00-.582 1.865l1.607 4.634a1.644 1.644 0 01-1 2.092l-5.68 1.993a1.632 1.632 0 01-2.08-1.01l-1.608-4.635a1.636 1.636 0 00-1.617-1.1 19.537 19.537 0 01-3.961-.252 1.636 1.636 0 00-1.74.883l-2.177 4.393a1.628 1.628 0 01-2.19.737l-5.384-2.7a1.646 1.646 0 01-.734-2.2l2.177-4.393a1.647 1.647 0 00-.343-1.923 19.747 19.747 0 01-2.434-2.806 1.629 1.629 0 00-1.848-.606l-4.623 1.566a1.632 1.632 0 01-2.07-1.032l-1.923-5.733a1.644 1.644 0 011.026-2.076l4.624-1.566a1.642 1.642 0 001.108-1.607 19.829 19.829 0 01.247-3.715 1.641 1.641 0 00-.879-1.736l-4.38-2.177a1.646 1.646 0 01-.741-2.2l2.664-5.423a1.629 1.629 0 012.188-.745l4.377 2.173a1.626 1.626 0 001.912-.351 19.675 19.675 0 012.78-2.459 1.646 1.646 0 00.595-1.86l-1.574-4.643a1.645 1.645 0 011.019-2.085l5.694-1.951a1.631 1.631 0 012.074 1.021l1.575 4.645a1.633 1.633 0 001.6 1.108 19.453 19.453 0 013.7.234 1.63 1.63 0 001.726-.9l2.145-4.407a1.631 1.631 0 012.186-.753l5.4 2.659a1.646 1.646 0 01.749 2.2l-2.146 4.414a1.647 1.647 0 00.356 1.921 19.811 19.811 0 012.453 2.788 1.629 1.629 0 001.852.593l4.614-1.6a1.632 1.632 0 012.082 1.018l1.96 5.718a1.646 1.646 0 01-1.012 2.089l-4.613 1.6a1.651 1.651 0 00-1.1 1.626 19.865 19.865 0 01-.217 3.7 1.651 1.651 0 00.9 1.743l4.388 2.14a1.647 1.647 0 01.752 2.19z"/><path d="M103.038 66.756a11.678 11.678 0 00-5.2-15.621 11.555 11.555 0 00-15.535 5.228 11.678 11.678 0 005.2 15.621 11.556 11.556 0 0015.535-5.228z"/></g></svg>