<svg xmlns="http://www.w3.org/2000/svg" xmlns:xlink="http://www.w3.org/1999/xlink" width="120.981" height="90" viewBox="0 0 120.981 90"><defs><clipPath id="a"><rect width="120.981" height="90" fill="#f85f51" stroke="rgba(0,0,0,0)" stroke-width="1"/></clipPath></defs><g transform="translate(0 0)"><g transform="translate(0 0)" clip-path="url(#a)"><path d="M60.556,56.138l-5.264,5.181a1.992,1.992,0,0,1-2.829-.031l-4.181-4.3a1.992,1.992,0,0,0-2.351-.373,23.929,23.929,0,0,1-4.2,1.7A2.009,2.009,0,0,0,40.29,60.23l-.054,6.01a2,2,0,0,1-2.018,1.993l-7.366-.066a2.006,2.006,0,0,1-1.982-2.03l.054-6.01a2.016,2.016,0,0,0-1.413-1.937,23.979,23.979,0,0,1-4.463-1.937,2,2,0,0,0-2.368.294L16.366,60.7a1.992,1.992,0,0,1-2.828-.061l-5.1-5.349A2.019,2.019,0,0,1,8.5,52.449l4.316-4.156a2.018,2.018,0,0,0,.394-2.36,24.324,24.324,0,0,1-1.651-4.246A2,2,0,0,0,9.682,40.22L3.71,40.1a2,2,0,0,1-1.96-2.05L1.9,30.647a2.005,2.005,0,0,1,2.039-1.971l5.974.119A2,2,0,0,0,11.846,27.4a24.268,24.268,0,0,1,1.813-4.178,2.017,2.017,0,0,0-.3-2.373L9.206,16.527a2.019,2.019,0,0,1,.051-2.844l5.3-5.143a1.993,1.993,0,0,1,2.829.051l4.149,4.325a1.993,1.993,0,0,0,2.349.389A23.979,23.979,0,0,1,28.1,11.632a2.01,2.01,0,0,0,1.452-1.9l.1-6.006A2.005,2.005,0,0,1,31.681,1.75l7.365.119a2.006,2.006,0,0,1,1.967,2.044l-.1,6.009a2.011,2.011,0,0,0,1.391,1.943,23.934,23.934,0,0,1,4.162,1.807,1.992,1.992,0,0,0,2.359-.314l4.285-4.186a1.992,1.992,0,0,1,2.828.04l5.134,5.312a2.02,2.02,0,0,1-.04,2.845l-4.287,4.188a2.018,2.018,0,0,0-.379,2.363,24.229,24.229,0,0,1,1.68,4.233,2,2,0,0,0,1.891,1.453l5.976.075a2.005,2.005,0,0,1,1.975,2.036L67.8,39.122a2.006,2.006,0,0,1-2.026,1.986L59.8,41.033a2.01,2.01,0,0,0-1.933,1.418,24.3,24.3,0,0,1-1.771,4.17A2.028,2.028,0,0,0,56.41,49l4.177,4.291A2.019,2.019,0,0,1,60.556,56.138Z" transform="translate(0.002 0.002)" fill="#f85f51" stroke="#fff" stroke-linecap="round" stroke-miterlimit="10" stroke-width="3.5"/><path d="M45.744,46.458a15.954,15.954,0,0,0,.481-22.469,15.745,15.745,0,0,0-22.347-.483,15.954,15.954,0,0,0-.48,22.469A15.744,15.744,0,0,0,45.744,46.458Z" transform="translate(0.024 0.024)" fill="#f85f51" stroke="#fff" stroke-linecap="round" stroke-miterlimit="10" stroke-width="3.5"/><path d="M118.158,70.626l-2.625,5.442a1.629,1.629,0,0,1-2.183.761l-4.392-2.142a1.627,1.627,0,0,0-1.909.365,19.678,19.678,0,0,1-2.765,2.475,1.648,1.648,0,0,0-.582,1.865l1.607,4.634a1.644,1.644,0,0,1-1,2.092l-5.68,1.993a1.632,1.632,0,0,1-2.08-1.01l-1.608-4.635a1.636,1.636,0,0,0-1.617-1.1,19.537,19.537,0,0,1-3.961-.252,1.636,1.636,0,0,0-1.74.883l-2.177,4.393a1.628,1.628,0,0,1-2.19.737l-5.384-2.7a1.646,1.646,0,0,1-.734-2.2l2.177-4.393a1.647,1.647,0,0,0-.343-1.923,19.747,19.747,0,0,1-2.434-2.806,1.629,1.629,0,0,0-1.848-.606l-4.623,1.566a1.632,1.632,0,0,1-2.07-1.032L66.074,67.3A1.644,1.644,0,0,1,67.1,65.224l4.624-1.566a1.642,1.642,0,0,0,1.108-1.607,19.829,19.829,0,0,1,.247-3.715A1.641,1.641,0,0,0,72.2,56.6L67.82,54.423a1.646,1.646,0,0,1-.741-2.2L69.743,46.8a1.629,1.629,0,0,1,2.188-.745l4.377,2.173a1.626,1.626,0,0,0,1.912-.351A19.675,19.675,0,0,1,81,45.418a1.646,1.646,0,0,0,.595-1.86l-1.574-4.643a1.645,1.645,0,0,1,1.019-2.085l5.694-1.951A1.631,1.631,0,0,1,88.808,35.9l1.575,4.645a1.633,1.633,0,0,0,1.6,1.108,19.453,19.453,0,0,1,3.7.234,1.63,1.63,0,0,0,1.726-.9l2.145-4.407a1.631,1.631,0,0,1,2.186-.753l5.4,2.659a1.646,1.646,0,0,1,.749,2.2L105.743,45.1a1.647,1.647,0,0,0,.356,1.921,19.811,19.811,0,0,1,2.453,2.788,1.629,1.629,0,0,0,1.852.593l4.614-1.6A1.632,1.632,0,0,1,117.1,49.82l1.96,5.718a1.646,1.646,0,0,1-1.012,2.089l-4.613,1.6a1.651,1.651,0,0,0-1.1,1.626,19.865,19.865,0,0,1-.217,3.7,1.651,1.651,0,0,0,.9,1.743l4.388,2.14A1.647,1.647,0,0,1,118.158,70.626Z" transform="translate(0.084 0.044)" fill="#f85f51" stroke="#fff" stroke-linecap="round" stroke-miterlimit="10" stroke-width="3.5"/><path d="M102.935,66.693a11.678,11.678,0,0,0-5.2-15.621A11.555,11.555,0,0,0,82.2,56.3a11.678,11.678,0,0,0,5.2,15.621A11.556,11.556,0,0,0,102.935,66.693Z" transform="translate(0.103 0.063)" fill="#f85f51" stroke="#fff" stroke-linecap="round" stroke-miterlimit="10" stroke-width="3.5"/></g></g></svg>