<?xml version="1.0" encoding="UTF-8"?><svg id="a" xmlns="http://www.w3.org/2000/svg" width="120" height="90" viewBox="0 0 120 90"><defs><style>.b{fill:none;stroke:#f85f51;stroke-linecap:round;stroke-miterlimit:10;stroke-width:3.5px;}</style></defs><g><path class="b" d="M72.55,76.18c-6.72,5.44-15.27,8.69-24.59,8.69-21.6,0-39.12-17.51-39.12-39.12S26.36,6.63,47.97,6.63c9.29,0,17.83,3.24,24.54,8.65"/><path class="b" d="M63.12,72.48c-3.79,7.62-9.18,12.38-15.15,12.38-11.46,0-20.76-17.51-20.76-39.12S36.5,6.63,47.97,6.63c5.97,0,11.35,4.75,15.14,12.35"/><line class="b" x1="47.97" y1="6.63" x2="47.97" y2="84.87"/><line class="b" x1="8.85" y1="45.75" x2="50.91" y2="45.75"/></g><g><path class="b" d="M103.27,43.09c1.54,12.32-7.2,23.56-19.52,25.11-12.32,1.54-23.56-7.2-25.1-19.52-1.54-12.32,7.2-23.56,19.52-25.1,12.32-1.54,23.56,7.2,25.1,19.52Z"/><path class="b" d="M93.94,64.76l14.35,14.3c1.64,1.64,4.31,1.64,5.94,0h0c1.64-1.64,1.64-4.31,0-5.94l-14.35-14.3"/></g></svg>