<svg xmlns="http://www.w3.org/2000/svg" xmlns:xlink="http://www.w3.org/1999/xlink" width="137.383" height="90" viewBox="0 0 137.383 90"><defs><clipPath id="a"><rect width="137.383" height="90" fill="none"/></clipPath></defs><g clip-path="url(#a)"><rect width="9.888" height="12.891" rx="1.555" transform="translate(31.882 47.361)" fill="none" stroke="#f85f51" stroke-linecap="round" stroke-miterlimit="10" stroke-width="3.5"/><path d="M1.555,0H8.333A1.554,1.554,0,0,1,9.887,1.554V30.536A1.554,1.554,0,0,1,8.333,32.09H1.555A1.555,1.555,0,0,1,0,30.535V1.555A1.555,1.555,0,0,1,1.555,0Z" transform="translate(51.633 28.162)" fill="none" stroke="#f85f51" stroke-linecap="round" stroke-miterlimit="10" stroke-width="3.5"/><path d="M1.555,0H8.333A1.554,1.554,0,0,1,9.887,1.554V21.2a1.555,1.555,0,0,1-1.555,1.555H1.555A1.555,1.555,0,0,1,0,21.2V1.555A1.555,1.555,0,0,1,1.555,0Z" transform="translate(71.383 37.497)" fill="none" stroke="#f85f51" stroke-linecap="round" stroke-miterlimit="10" stroke-width="3.5"/><rect width="9.888" height="45.508" rx="1.555" transform="translate(91.131 14.743)" fill="none" stroke="#f85f51" stroke-linecap="round" stroke-miterlimit="10" stroke-width="3.5"/><path d="M119.03,72.241H11.061V7.286A5.537,5.537,0,0,1,16.6,1.75h96.9a5.536,5.536,0,0,1,5.536,5.536Z" transform="translate(3.176 0.502)" fill="none" stroke="#f85f51" stroke-linecap="round" stroke-miterlimit="10" stroke-width="3.5"/><path d="M132.562,71.52H3.816a2.075,2.075,0,0,1-1.46-3.537L13.735,56.514H121.7l12.259,11.412A2.074,2.074,0,0,1,132.562,71.52Z" transform="translate(0.503 16.227)" fill="none" stroke="#f85f51" stroke-linecap="round" stroke-miterlimit="10" stroke-width="3.5"/></g></svg>